<?xml version="1.0" standalone="no"?>
<!DOCTYPE svg PUBLIC "-//W3C//DTD SVG 1.1//EN" "http://www.w3.org/Graphics/SVG/1.1/DTD/svg11.dtd">
<svg xmlns="http://www.w3.org/2000/svg" xmlns:xlink="http://www.w3.org/1999/xlink" version="1.1" id="body_1" width="1123" height="793">

<defs>
    <clipPath  id="p1-1">

    <path id=""  clip-rule="evenodd" transform="matrix(1 0 0 1 0 0)"  d="M0 595L0 0L0 0L842 0L842 0L842 595L842 595L0 595z" />    </clipPath>
    <clipPath  id="p1-2">

    <path id=""  clip-rule="evenodd" transform="matrix(1 0 0 1 0 0)"  d="M90 0L842 0L842 0L842 595L842 595L90 595z" />    </clipPath>
    <clipPath  id="p1-3">

    <path id=""  clip-rule="evenodd" transform="matrix(1 0 0 1 0 0)"  d="M96 78L270.75 78L270.75 78L270.75 122.25L270.75 122.25L96 122.25z" />    </clipPath>
    <clipPath  id="p1-4">

    <path id=""  clip-rule="evenodd" transform="matrix(1 0 0 1 0 0)"  d="M96 78L270.75 78L270.75 78L270.75 122.25L270.75 122.25L96 122.25z" />    </clipPath>
</defs>

<g transform="matrix(1.3333 0 0 1.3333 0 0)">
	<g clip-path="url(#p1-1)" >
		<g clip-path="url(#p1-2)" >
			<g clip-path="url(#p1-3)" >
				<g clip-path="url(#p1-4)" >
    <path id=""  transform="matrix(1 0 0 -1 0 595)"  d="M198.45 490.723L201.07599 490.723L201.07599 490.723L201.07599 484.479L201.07599 484.479L201.198 484.479L201.198 484.479L207.305 490.723L207.305 490.723L210.832 490.723L210.832 490.723L203.94699 483.914L203.94699 483.914L211.29001 475.976L211.29001 475.976L207.61 475.976L207.61 475.976L201.21399 483.227L201.21399 483.227L201.077 483.227L201.077 483.227L201.077 475.976L201.077 475.976L198.45 475.976L198.45 475.976L198.45 490.722zM181.259 490.723L184.73999 490.723L184.73999 490.723L191.869 479.778L191.869 479.778L191.91501 479.778L191.91501 479.778L191.91501 490.722L191.91501 490.722L194.541 490.722L194.541 490.722L194.541 475.975L194.541 475.975L191.213 475.975L191.213 475.975L183.931 487.287L183.931 487.287L183.88501 487.287L183.88501 487.287L183.88501 475.975L183.88501 475.975L181.259 475.975L181.259 475.975L181.259 490.722zM173.703 481.61L171.42801 487.61L171.42801 487.61L169.123 481.61L169.123 481.61L173.703 481.61zM170.374 490.723L172.649 490.723L172.649 490.723L179 475.991L179 475.991L176.007 475.991L176.007 475.991L174.633 479.365L174.633 479.365L168.252 479.365L168.252 479.365L166.925 475.991L166.925 475.991L163.993 475.991L163.993 475.991L170.406 490.723L170.406 490.723L170.375 490.723zM154.13 478.236L156.543 478.236C 156.879 478.236 157.23 478.251 157.612 478.296C 157.9765 478.3349 158.3322 478.4332 158.66501 478.587C 158.9808 478.7351 159.254 478.96082 159.459 479.243C 159.673 479.533 159.764 479.914 159.764 480.403C 159.764 481.181 159.505 481.716 159 482.021C 158.496 482.326 157.702 482.479 156.634 482.479L156.634 482.479L154.115 482.479L154.115 482.479L154.115 478.235L154.115 478.235L154.13 478.235zM154.13 484.723L156.528 484.723C 157.398 484.723 158.054 484.891 158.49701 485.227C 158.939 485.563 159.153 486.02 159.153 486.57C 159.153 487.211 158.924 487.684 158.482 487.99C 158.024 488.295 157.307 488.462 156.314 488.462L156.314 488.462L154.146 488.462L154.146 488.462L154.146 484.722L154.146 484.722L154.13 484.722zM151.505 490.722L157.245 490.722C 157.795 490.722 158.344 490.661 158.893 490.524C 159.41 490.3956 159.90091 490.1788 160.344 489.883C 160.771 489.578 161.108 489.19598 161.382 488.723C 161.64099 488.25 161.77899 487.685 161.77899 487.013C 161.77899 486.189 161.55 485.502 161.07599 484.952C 160.604 484.418 159.992 484.021 159.229 483.792L159.229 483.792L159.229 483.747C 159.687 483.685 160.114 483.563 160.512 483.365C 161.281 482.9833 161.8759 482.3233 162.176 481.519C 162.344 481.106 162.42 480.664 162.42 480.191C 162.42 479.382 162.268 478.71 161.948 478.176C 161.63739 477.6518 161.20871 477.2073 160.696 476.878C 160.14679 476.5404 159.5421 476.3028 158.91 476.176C 158.238 476.038 157.551 475.962 156.864 475.962L156.864 475.962L151.552 475.962L151.552 475.962L151.552 490.692L151.552 490.692L151.506 490.722zM260.18298 510.951L269.938 510.951L269.938 510.951L269.938 508.569L269.938 508.569L262.793 508.569L262.793 508.569L262.793 504.951L262.793 504.951L269.556 504.951L269.556 504.951L269.556 502.585L269.556 502.585L262.793 502.585L262.793 502.585L262.793 498.586L262.793 498.586L270.30298 498.586L270.30298 498.586L270.30298 496.22L270.30298 496.22L260.182 496.22L260.182 496.22L260.182 510.95zM251.101 504.707C 251.467 504.707 251.849 504.722 252.231 504.752C 252.587 504.7831 252.9367 504.8656 253.269 504.997C 253.5735 505.1291 253.8372 505.34 254.033 505.608C 254.231 505.883 254.323 506.249 254.323 506.738C 254.323 507.165 254.231 507.516 254.049 507.776C 253.8716 508.033 253.6294 508.2386 253.347 508.372C 253.057 508.509 252.736 508.586 252.385 508.631C 252.0407 508.6737 251.694 508.6941 251.347 508.692L251.347 508.692L249.072 508.692L249.072 508.692L249.072 504.692L249.072 504.692L251.118 504.692L251.118 504.692L251.103 504.707zM246.444 510.951L251.558 510.951C 252.261 510.951 252.947 510.889 253.604 510.752C 254.26 510.615 254.84 510.401 255.36 510.08C 255.8738 509.7619 256.29492 509.3143 256.581 508.782C 256.886 508.248 257.039 507.561 257.039 506.721C 257.039 505.653 256.749 504.752 256.154 504.034C 255.558 503.316 254.719 502.874 253.62 502.721L253.62 502.721L257.528 496.202L257.528 496.202L254.367 496.202L254.367 496.202L250.948 502.446L250.948 502.446L249.04 502.446L249.04 502.446L249.04 496.202L249.04 496.202L246.414 496.202L246.414 496.202L246.414 510.951L246.414 510.951L246.444 510.951zM242.598 501.623C 242.598 500.738 242.445 499.928 242.14 499.211C 241.855 498.5244 241.4284 497.9056 240.888 497.395C 240.345 496.8884 239.707 496.4942 239.011 496.235C 238.293 495.96 237.5 495.822 236.66 495.822C 235.821 495.822 235.027 495.95898 234.309 496.235C 233.613 496.4942 232.9751 496.8884 232.432 497.395C 231.8916 497.9056 231.465 498.5244 231.18 499.211C 230.875 499.92902 230.737 500.722 230.737 501.623L230.737 501.623L230.737 510.951L230.737 510.951L233.363 510.951L233.363 510.951L233.363 501.715C 233.363 501.349 233.425 500.982 233.531 500.585C 233.638 500.188 233.821 499.82098 234.081 499.486C 234.34 499.151 234.677 498.875 235.104 498.662C 235.531 498.448 236.05 498.342 236.676 498.342C 237.302 498.342 237.821 498.449 238.249 498.662C 238.6486 498.8552 238.9985 499.1375 239.272 499.487C 239.5267 499.8129 239.7134 500.18658 239.821 500.586C 239.926 500.9537 239.9825 501.3336 239.989 501.716L239.989 501.716L239.989 510.951L239.989 510.951L242.615 510.951L242.615 510.951L242.615 501.623L242.615 501.623L242.6 501.623zM221.23999 508.569L216.72101 508.569L216.72101 508.569L216.72101 510.951L216.72101 510.951L228.384 510.951L228.384 510.951L228.384 508.569L228.384 508.569L223.86499 508.569L223.86499 508.569L223.86499 496.22L223.86499 496.22L221.239 496.22L221.239 496.22L221.239 508.569zM212.58499 501.837L210.31 507.837L210.31 507.837L208.005 501.837L208.005 501.837L212.584 501.837zM209.257 510.951L211.532 510.951L211.532 510.951L217.882 496.219L217.882 496.219L214.89 496.219L214.89 496.219L213.51599 499.593L213.51599 499.593L207.119 499.593L207.119 499.593L205.79199 496.219L205.79199 496.219L202.86 496.219L202.86 496.219L209.272 510.951L209.272 510.951L209.257 510.951zM187.289 510.951L190.76999 510.951L190.76999 510.951L197.914 500.005L197.914 500.005L197.945 500.005L197.945 500.005L197.945 510.951L197.945 510.951L200.571 510.951L200.571 510.951L200.571 496.218L200.571 496.218L197.243 496.218L197.243 496.218L189.961 507.515L189.961 507.515L189.91501 507.515L189.91501 507.515L189.91501 496.218L189.91501 496.218L187.289 496.218L187.289 496.218L187.289 510.951zM183.564 497.287C 181.748 496.31 179.71701 495.836 177.47299 495.836C 176.328 495.836 175.29001 496.019 174.343 496.386C 173.397 496.752 172.57199 497.271 171.88501 497.943C 171.198 498.614 170.664 499.423 170.267 500.37C 169.88501 501.316 169.687 502.354 169.687 503.515C 169.687 504.675 169.886 505.775 170.267 506.736C 170.6271 507.6602 171.1785 508.4979 171.88501 509.194C 172.57199 509.881 173.396 510.4 174.343 510.767C 175.289 511.133 176.343 511.316 177.47299 511.316C 178.603 511.316 179.656 511.179 180.633 510.903C 181.6158 510.6359 182.521 510.1389 183.274 509.453L183.274 509.453L181.33499 507.499C 180.862 507.957 180.297 508.308 179.626 508.568C 178.9414 508.819 178.21811 508.9479 177.489 508.949C 176.741 508.949 176.038 508.812 175.413 508.536C 174.802 508.262 174.268 507.896 173.825 507.407C 173.373 506.9199 173.0204 506.3492 172.787 505.727C 172.5394 505.0686 172.41501 504.3704 172.42 503.667C 172.42 502.873 172.54199 502.156 172.787 501.484C 173.032 500.812 173.367 500.247 173.825 499.758C 174.2722 499.2737 174.8122 498.8843 175.413 498.613C 176.024 498.339 176.726 498.2 177.489 498.2C 178.16101 498.2 178.787 498.262 179.367 498.384C 179.9183 498.4932 180.4489 498.6889 180.939 498.964L180.939 498.964L180.939 502.444L180.939 502.444L177.916 502.444L177.916 502.444L177.916 504.812L177.916 504.812L183.54901 504.812L183.54901 504.812L183.54901 497.286L183.54901 497.286L183.564 497.286zM166.63501 510.951L164.009 510.951L164.009 510.951L164.009 496.218L164.009 496.218L166.634 496.218L166.634 496.218L166.634 510.951zM158.726 507.79C 158.4502 508.1885 158.06259 508.4965 157.612 508.675C 157.1458 508.8594 156.6484 508.9524 156.147 508.949C 155.842 508.949 155.551 508.919 155.261 508.842C 154.98691 508.7808 154.7274 508.6666 154.49701 508.506C 154.268 508.354 154.084 508.155 153.94699 507.91C 153.80139 507.6435 153.7276 507.3437 153.733 507.04C 153.733 506.536 153.901 506.155 154.25299 505.895C 154.604 505.636 155.031 505.408 155.551 505.20898C 156.1035 504.9997 156.6635 504.8109 157.23 504.643C 157.841 504.46 158.405 504.216 158.925 503.895C 159.4434 503.57 159.886 503.1376 160.22299 502.627C 160.573 502.093 160.741 501.406 160.741 500.521C 160.741 499.727 160.58899 499.04 160.29901 498.445C 160.0251 497.8726 159.62311 497.3709 159.124 496.979C 158.6151 496.582 158.0345 496.2866 157.414 496.109C 156.745 495.91132 156.0505 495.8136 155.353 495.819C 154.4526 495.8158 153.5587 495.9709 152.712 496.277C 151.87201 496.582 151.139 497.102 150.52899 497.819L150.52899 497.819L152.513 499.727C 152.834 499.239 153.246 498.857 153.765 498.597C 154.283 498.323 154.83301 498.184 155.413 498.184C 155.718 498.184 156.024 498.23 156.328 498.306C 156.6273 498.3858 156.9112 498.5149 157.168 498.688C 157.413 498.855 157.626 499.069 157.77899 499.328C 157.932 499.587 158.008 499.878 158.008 500.213C 158.008 500.748 157.84 501.175 157.489 501.465C 157.138 501.755 156.711 501.999 156.19101 502.198C 155.6384 502.4123 155.0781 502.6058 154.511 502.778C 153.923 502.9506 153.35919 503.1969 152.83301 503.511C 152.3153 503.8301 151.8725 504.2571 151.535 504.763C 151.183 505.281 151.015 505.984 151.015 506.854C 151.015 507.618 151.168 508.274 151.488 508.823C 151.80899 509.372 152.206 509.845 152.725 510.212C 153.2509 510.5888 153.8403 510.8679 154.465 511.036C 155.1156 511.2188 155.78821 511.311 156.464 511.31C 157.242 511.31 157.99 511.188 158.724 510.959C 159.457 510.73 160.113 510.334 160.693 509.799L160.693 509.799L158.785 507.784L158.785 507.784L158.724 507.784z" stroke="none" fill="#6C1D45" fill-rule="nonzero" />
    <path id=""  transform="matrix(1 0 0 -1 0 595)"  d="M114.154 497.846C 114.154 497.006 114.841 496.30402 115.68 496.30402L115.68 496.30402L118.444 496.30402C 120.8124 496.3018 122.7318 494.3824 122.734 492.014C 122.7312 489.646 120.812 487.7272 118.444 487.725L118.444 487.725L118.444 484.657C 122.505 484.657 125.802 487.954 125.802 492.015C 125.802 496.076 122.505 499.374 118.444 499.374L118.444 499.374L115.681 499.374C 114.826004 499.374 114.154 498.687 114.154 497.832" stroke="none" fill="#B9975B" fill-rule="nonzero" />
    <path id=""  transform="matrix(1 0 0 -1 0 595)"  d="M115.697 490.489L118.46 490.489C 118.8694 490.4877 119.2624 490.6497 119.5518 490.9392C 119.8413 491.2286 120.003296 491.6216 120.002 492.031C 120.002 492.886 119.315 493.558 118.46 493.558L118.46 493.558L115.697 493.558C 113.3286 493.5602 111.4092 495.4796 111.407 497.848C 111.4098 500.216 113.329 502.1348 115.697 502.137L115.697 502.137L115.697 505.205C 111.636 505.205 108.339 501.908 108.339 497.847C 108.339 493.786 111.636 490.489 115.697 490.489z" stroke="none" fill="#B9975B" fill-rule="nonzero" />
    <path id=""  transform="matrix(1 0 0 -1 0 595)"  d="M118.459 516.869L115.696 516.869C 105.194 516.869 96.675 508.35 96.675 497.847L96.675 497.847L96.675 496.305L96.675 496.305L99.744 496.305L99.744 496.305L99.744 497.847C 99.744 506.656 106.889 513.8 115.697 513.8L115.697 513.8L118.46 513.8C 127.269 513.8 134.413 506.656 134.413 497.847L134.413 497.847L134.413 496.305L134.413 496.305L137.482 496.305L137.482 496.305L137.482 497.847C 137.466 508.35 128.963 516.869 118.459 516.869zM134.397 492.031C 134.397 483.223 127.252 476.078 118.444 476.078L118.444 476.078L115.681 476.078C 106.872 476.078 99.728 483.223 99.728 492.031L99.728 492.031L99.728 493.558L99.728 493.558L96.675 493.558L96.675 493.558L96.675 492.031C 96.675 481.528 105.193 473.01 115.696 473.01L115.696 473.01L118.459 473.01C 128.962 473.01 137.48 481.528 137.48 492.031L137.48 492.031L137.48 493.558L137.48 493.558L134.412 493.558L134.412 493.558L134.412 492.031L134.412 492.031L134.397 492.031z" stroke="none" fill="#B9975B" fill-rule="nonzero" />
    <path id=""  transform="matrix(1 0 0 -1 0 595)"  d="M105.576004 497.847C 105.576004 503.434 110.11 507.968 115.697 507.968L115.697 507.968L118.46 507.968C 122.918 507.968 126.719 505.083 128.062 501.068C 125.5729 503.7198 122.097 505.2229 118.46 505.22L118.46 505.22L118.46 502.152C 124.047 502.152 128.581 497.617 128.581 492.031C 128.581 486.444 124.047 481.91 118.46 481.91L118.46 481.91L115.697 481.91C 111.239 481.91 107.438 484.81 106.095 488.825C 108.5841 486.1732 112.06 484.6702 115.697 484.673L115.697 484.673L115.697 487.741C 110.11 487.741 105.576004 492.276 105.576004 497.863L105.576004 497.863L105.576004 497.848zM102.508 497.847L102.508 492.015C 102.508 484.733 108.416 478.825 115.698 478.825L115.698 478.825L118.461 478.825C 125.744 478.825 131.651 484.733 131.651 492.015L131.651 492.015L131.651 497.847C 131.651 505.129 125.743 511.037 118.461 511.037L118.461 511.037L115.698 511.037C 108.415 511.037 102.508 505.129 102.508 497.847z" stroke="none" fill="#B9975B" fill-rule="nonzero" />
				</g>
			</g>
		</g>
	</g>
</g>
</svg>